<svg width="113" height="20" viewBox="0 0 113 20" fill="none" xmlns="http://www.w3.org/2000/svg">
<path d="M8.77758 17.42L0.777578 12.84V10.76L8.77758 6.18L10.2376 9.18L3.61758 12.5V11.1L10.2376 14.42L8.77758 17.42ZM90.869 19.92L99.229 3H102.949L94.629 19.92H90.869ZM104.475 17.42L103.015 14.42L109.635 11.1V12.5L103.015 9.18L104.475 6.18L112.475 10.76V12.84L104.475 17.42Z" fill="#00684A"/>
<path d="M11.6049 17V3H17.6449C18.6983 3 19.6583 3.17333 20.5249 3.52C21.3916 3.86667 22.1449 4.35333 22.7849 4.98C23.4249 5.59333 23.9183 6.32667 24.2649 7.18C24.6116 8.03333 24.7849 8.97333 24.7849 10C24.7849 11.0133 24.6116 11.9533 24.2649 12.82C23.9183 13.6733 23.4249 14.4133 22.7849 15.04C22.1449 15.6533 21.3916 16.1333 20.5249 16.48C19.6583 16.8267 18.6983 17 17.6449 17H11.6049ZM15.5649 14.48L14.9449 13.58H17.5449C18.0383 13.58 18.4783 13.4933 18.8649 13.32C19.2649 13.1467 19.6049 12.9067 19.8849 12.6C20.1649 12.28 20.3849 11.9 20.5449 11.46C20.7049 11.02 20.7849 10.5333 20.7849 10C20.7849 9.46667 20.7049 8.98 20.5449 8.54C20.3849 8.1 20.1583 7.72667 19.8649 7.42C19.5849 7.1 19.2516 6.85333 18.8649 6.68C18.4783 6.50667 18.0383 6.42 17.5449 6.42H14.8849L15.5649 5.56V14.48ZM31.549 17.2C30.3357 17.2 29.289 16.9667 28.409 16.5C27.529 16.02 26.849 15.3667 26.369 14.54C25.889 13.7 25.649 12.7467 25.649 11.68C25.649 10.88 25.7823 10.14 26.049 9.46C26.3157 8.78 26.689 8.19333 27.169 7.7C27.649 7.19333 28.2157 6.80667 28.869 6.54C29.5357 6.26 30.2623 6.12 31.049 6.12C31.8223 6.12 32.5223 6.25333 33.149 6.52C33.789 6.78667 34.3357 7.16667 34.789 7.66C35.2557 8.15333 35.609 8.73333 35.849 9.4C36.1023 10.0667 36.2157 10.8 36.189 11.6L36.169 12.44H27.769L27.309 10.58H33.189L32.829 10.98V10.6C32.829 10.3067 32.749 10.0533 32.589 9.84C32.4423 9.61333 32.2423 9.44 31.989 9.32C31.7357 9.2 31.449 9.14 31.129 9.14C30.6757 9.14 30.2957 9.23333 29.989 9.42C29.6957 9.59333 29.469 9.84667 29.309 10.18C29.149 10.5133 29.069 10.9133 29.069 11.38C29.069 11.9133 29.1757 12.3733 29.389 12.76C29.6157 13.1467 29.9423 13.4467 30.369 13.66C30.809 13.8733 31.3423 13.98 31.969 13.98C32.3823 13.98 32.7423 13.9267 33.049 13.82C33.369 13.7133 33.709 13.5267 34.069 13.26L35.789 15.68C35.3223 16.0533 34.849 16.3533 34.369 16.58C33.9023 16.7933 33.4357 16.9467 32.969 17.04C32.5023 17.1467 32.029 17.2 31.549 17.2ZM40.5324 17L36.0924 6.34H40.2324L42.6124 14.3L41.6524 14.32L44.0524 6.34H48.1724L43.5124 17H40.5324ZM55.9148 17.22C55.4214 17.22 54.9548 17.1533 54.5148 17.02C54.0748 16.9 53.6814 16.7333 53.3348 16.52C52.9881 16.2933 52.7014 16.0333 52.4748 15.74C52.2481 15.4467 52.1014 15.1333 52.0348 14.8L52.7948 14.6L52.5348 16.98H49.1348V2.2H52.8748V8.92L52.0748 8.66C52.1548 8.3 52.3081 7.96667 52.5348 7.66C52.7748 7.35333 53.0614 7.08667 53.3948 6.86C53.7281 6.62 54.1014 6.44 54.5148 6.32C54.9281 6.18667 55.3614 6.12 55.8148 6.12C56.7348 6.12 57.5414 6.36 58.2348 6.84C58.9414 7.30667 59.4948 7.96 59.8948 8.8C60.3081 9.64 60.5148 10.6 60.5148 11.68C60.5148 12.76 60.3148 13.72 59.9148 14.56C59.5148 15.3867 58.9681 16.04 58.2748 16.52C57.5814 16.9867 56.7948 17.22 55.9148 17.22ZM54.8348 14.16C55.2614 14.16 55.6214 14.06 55.9148 13.86C56.2214 13.6467 56.4548 13.36 56.6148 13C56.7881 12.6267 56.8748 12.1867 56.8748 11.68C56.8748 11.16 56.7948 10.7133 56.6348 10.34C56.4748 9.96667 56.2414 9.68667 55.9348 9.5C55.6281 9.3 55.2614 9.2 54.8348 9.2C54.4081 9.2 54.0414 9.3 53.7348 9.5C53.4281 9.68667 53.1881 9.96667 53.0148 10.34C52.8548 10.7133 52.7748 11.16 52.7748 11.68C52.7748 12.1867 52.8548 12.6267 53.0148 13C53.1881 13.36 53.4281 13.6467 53.7348 13.86C54.0414 14.06 54.4081 14.16 54.8348 14.16ZM62.0727 17V6.34H65.7927V17H62.0727ZM63.9327 4.32C63.2527 4.32 62.7261 4.16667 62.3527 3.86C61.9794 3.54 61.7927 3.09333 61.7927 2.52C61.7927 1.98667 61.9794 1.55333 62.3527 1.22C62.7394 0.873332 63.2661 0.699999 63.9327 0.699999C64.5994 0.699999 65.1194 0.859999 65.4927 1.18C65.8794 1.48667 66.0727 1.93333 66.0727 2.52C66.0727 3.05333 65.8794 3.48667 65.4927 3.82C65.1061 4.15333 64.5861 4.32 63.9327 4.32ZM68.1305 17V2.2H71.8505V17H68.1305ZM74.093 17V2.2H77.813V17H74.093ZM85.0955 17.2C83.7089 17.2 82.5155 17.0067 81.5155 16.62C80.5289 16.2333 79.6889 15.6867 78.9955 14.98L80.6755 11.98C81.4489 12.6867 82.2155 13.1867 82.9755 13.48C83.7355 13.7733 84.4822 13.92 85.2155 13.92C85.5089 13.92 85.7755 13.8933 86.0155 13.84C86.2555 13.7733 86.4355 13.6733 86.5555 13.54C86.6889 13.3933 86.7555 13.2133 86.7555 13C86.7555 12.8133 86.7022 12.6533 86.5955 12.52C86.4889 12.3867 86.3422 12.2733 86.1555 12.18C85.9689 12.0733 85.7622 11.98 85.5355 11.9C85.3089 11.82 85.0822 11.76 84.8555 11.72C84.6289 11.6667 84.4089 11.6133 84.1955 11.56C83.1422 11.32 82.2689 11.0067 81.5755 10.62C80.8822 10.22 80.3622 9.73333 80.0155 9.16C79.6689 8.57333 79.4955 7.87333 79.4955 7.06C79.4955 6.40667 79.6489 5.80667 79.9555 5.26C80.2622 4.71333 80.6689 4.24667 81.1755 3.86C81.6822 3.46 82.2622 3.16 82.9155 2.96C83.5822 2.74667 84.2755 2.64 84.9955 2.64C86.1555 2.64 87.1955 2.79333 88.1155 3.1C89.0489 3.40667 89.9222 3.91333 90.7355 4.62L89.3355 7.36C88.7355 6.86667 88.0755 6.50667 87.3555 6.28C86.6355 6.05333 85.9022 5.94 85.1555 5.94C84.8222 5.94 84.5289 5.97333 84.2755 6.04C84.0355 6.10667 83.8489 6.20667 83.7155 6.34C83.5822 6.46 83.5155 6.62667 83.5155 6.84C83.5155 7.02667 83.5889 7.19333 83.7355 7.34C83.8822 7.47333 84.0689 7.58667 84.2955 7.68C84.5222 7.77333 84.7622 7.85333 85.0155 7.92C85.2822 7.97333 85.5222 8.02 85.7355 8.06C86.4689 8.20667 87.1355 8.4 87.7355 8.64C88.3489 8.86667 88.8822 9.16 89.3355 9.52C89.7889 9.86667 90.1355 10.2933 90.3755 10.8C90.6155 11.3067 90.7355 11.9 90.7355 12.58C90.7355 13.58 90.4822 14.4267 89.9755 15.12C89.4822 15.8 88.8089 16.32 87.9555 16.68C87.1155 17.0267 86.1622 17.2 85.0955 17.2ZM83.8755 18.82L84.2155 9.4L85.6755 10.06L85.9955 18.82H83.8755ZM86.0355 10.1L84.5755 9.44L84.2555 1.2H86.3755L86.0355 10.1Z" fill="#00ED64"/>
</svg>
